<svg aria-hidden="true" style="width:0;height:0;position:absolute" xmlns="http://www.w3.org/2000/svg" overflow="hidden"><defs><symbol id="logo" fill="none"><path d="M19.82 2H4.18C2.98 2 2 2.98 2 4.18v15.64c0 1.2.98 2.18 2.18 2.18h15.64c1.2 0 2.18-.98 2.18-2.18V4.18C22 2.98 21.02 2 19.82 2ZM7 2v20M17 2v20M2 12h20M2 7h5M2 17h5m10 0h5M17 7h5" stroke-width="2" stroke-linecap="round" stroke-linejoin="round"/></symbol><symbol id="footer-heart" fill="none"><path d="m7 12.88-.98-.98C2.38 8.68 0 6.51 0 3.85 0 1.68 1.68 0 3.85 0 5.04 0 6.23.56 7 1.47 7.77.56 8.96 0 10.15 0 12.32 0 14 1.68 14 3.85c0 2.66-2.38 4.83-6.02 8.05l-.98.98Z" fill="#FF6B08"/></symbol><symbol id="arrow-left" viewBox="0 0 16 16" fill="currentColor"><path d="M12.667 8H3.333M8 12.667 3.333 8 8 3.333" stroke="currentColor" stroke-width="1.333" stroke-linecap="round" stroke-linejoin="round"/></symbol><symbol id="arrow-right" viewBox="0 0 16 16" fill="currentColor"><path d="M3.333 8h9.334M8 12.667 12.667 8 8 3.333" stroke="currentColor" stroke-width="1.333" stroke-linecap="round" stroke-linejoin="round"/></symbol><symbol id="close-btn" viewBox="0 0 30 30" fill="none"><path d="m8 8 14 14M8 22 22 8" stroke="#000" stroke-width="2"/></symbol><symbol id="loupe" viewBox="0 0 12 12" fill="none"><path d="M5.5 9.5a4 4 0 1 0 0-8 4 4 0 0 0 0 8ZM10.5 10.5 8.325 8.325" stroke="#fff" stroke-linecap="round" stroke-linejoin="round"/></symbol></defs></svg>