<svg
  aria-hidden="true"
  style="position: absolute; width: 0; height: 0"
  xmlns="http://www.w3.org/2000/svg"
  overflow="hidden"
>
  <defs>
    <!-- Logo -->
    <symbol id="logo" viewbox="0 0 24 24" fill="none">
      <path
        d="M19.82 2H4.18C2.98 2 2 2.98 2 4.18v15.64c0 1.2.98 2.18 2.18 2.18h15.64c1.2 0 2.18-.98 2.18-2.18V4.18C22 2.98 21.02 2 19.82 2ZM7 2v20M17 2v20M2 12h20M2 7h5M2 17h5m10 0h5M17 7h5"
      
        stroke-width="2"
        stroke-linecap="round"
        stroke-linejoin="round"
      />
        <!-- stroke="none" -->
    </symbol>

    <!-- Footer Heart -->
    <symbol id="footer-heart" viewbox="0 0 14 13"  fill="none">
      <path
        d="m7 12.88-.98-.98C2.38 8.68 0 6.51 0 3.85 0 1.68 1.68 0 3.85 0 5.04 0 6.23.56 7 1.47 7.77.56 8.96 0 10.15 0 12.32 0 14 1.68 14 3.85c0 2.66-2.38 4.83-6.02 8.05l-.98.98Z"
        fill="#FF6B08"
      />
    </symbol>
    
    <!-- Arrow Left -->
    <symbol id="arrow-left" viewBox="0 0 16 16" fill="none">
      <path d="M12.6666 8H3.33325" stroke="black" stroke-width="1.33333" stroke-linecap="round" stroke-linejoin="round"/>
      <path d="M7.99992 12.6668L3.33325 8.00016L7.99992 3.3335" stroke="black" stroke-width="1.33333" stroke-linecap="round" stroke-linejoin="round"/>
    </symbol>
    
    <!-- Arrow Right -->
    <symbol id="arrow-right" viewBox="0 0 16 16" fill="none">
      <path d="M3.33341 8H12.6667" stroke="black" stroke-width="1.33333" stroke-linecap="round" stroke-linejoin="round"/>
      <path d="M8.00008 12.6668L12.6667 8.00016L8.00008 3.3335" stroke="black" stroke-width="1.33333" stroke-linecap="round" stroke-linejoin="round"/>
    </symbol>
    
    <!-- Close Button -->
    <symbol id="close-btn" viewBox="0 0 30 30" fill="none">
      <path d="M8 8L22 22" stroke="black" stroke-width="2"/>
      <path d="M8 22L22 8" stroke="black" stroke-width="2"/>
    </symbol>

    <!-- Lope (search icon) -->
    <symbol id="loupe" viewBox="0 0 12 12" fill="none" >
      <path d="M5.5 9.5C7.70914 9.5 9.5 7.70914 9.5 5.5C9.5 3.29086 7.70914 1.5 5.5 1.5C3.29086 1.5 1.5 3.29086 1.5 5.5C1.5 7.70914 3.29086 9.5 5.5 9.5Z" stroke="white" stroke-linecap="round" stroke-linejoin="round"/>
      <path d="M10.5 10.5002L8.32495 8.3252" stroke="white" stroke-linecap="round" stroke-linejoin="round"/>
    </symbol>
    
  </defs>
</svg>
